# xmcd CD database file
#
# Track frame offsets:
#	150
#	42602
#	96980
#	128257
#	165395
#	183337
#	209252
#	235742
#	272372
#	278015
#
# Disc length: 4225 seconds
#
# Revision: 0
# Processed by: cddbd v1.5.2PL0 Copyright (c) Steve Scherf et al.
# Submitted via: CDex 1.70beta2
#
DISCID=7e107f0a
DTITLE=Weather Report  - Weather Report  Live and Unreleased -cd2
DYEAR=2002
DGENRE=Jazz
TTITLE0=Weather Report   - Black Market
TTITLE1=Weather Report   - Where The Moon Goes
TTITLE2=Weather Report   - River People
TTITLE3=Weather Report   - Two Lines
TTITLE4=Weather Report   - Cigano
TTITLE5=Weather Report   - In A Silent Way - Waterfall
TTITLE6=Weather Report   - Night Passage
TTITLE7=Weather Report   - Port Of Entry
TTITLE8=Weather Report   - Rumba Mama
TTITLE9=Weather Report   - Directions - Dr. Honoris Causa
EXTD=YEAR: 2002
EXTT0=
EXTT1=
EXTT2=
EXTT3=
EXTT4=
EXTT5=
EXTT6=
EXTT7=
EXTT8=
EXTT9=
PLAYORDER=
